<?xml version="1.0" standalone="no"?>
<!DOCTYPE svg PUBLIC "-//W3C//DTD SVG 20010904//EN"
 "http://www.w3.org/TR/2001/REC-SVG-20010904/DTD/svg10.dtd">
<svg version="1.0" xmlns="http://www.w3.org/2000/svg"
 width="1080.000000pt" height="1080.000000pt" viewBox="0 0 1080.000000 1080.000000"
 preserveAspectRatio="xMidYMid meet">

<g transform="translate(0.000000,1080.000000) scale(0.100000,-0.100000)"
fill="#000000" stroke="none">
<path d="M1300 9972 c0 -148 4 -162 50 -161 l25 0 -22 16 c-22 15 -23 22 -23
149 0 112 -2 134 -15 134 -13 0 -15 -22 -15 -138z"/>
<path d="M2230 10090 c0 -11 6 -20 13 -20 19 0 27 10 20 26 -8 21 -33 17 -33
-6z"/>
<path d="M828 9953 c64 -187 72 -188 131 -16 24 70 46 134 49 141 2 6 -3 12
-11 12 -11 0 -27 -35 -52 -112 -21 -62 -41 -117 -45 -121 -4 -5 -13 8 -20 30
-41 126 -73 203 -85 203 -10 0 -1 -39 33 -137z"/>
<path d="M1770 9951 l0 -141 55 0 c71 0 132 24 150 61 8 15 15 55 15 88 0 53
-4 65 -29 93 -28 31 -33 33 -110 36 l-81 4 0 -141z m161 90 c26 -26 29 -36 29
-91 0 -51 -4 -65 -25 -85 -20 -21 -34 -25 -80 -25 l-55 0 0 115 0 115 51 0
c43 0 55 -5 80 -29z"/>
<path d="M1114 10020 c-36 -15 -54 -50 -54 -108 0 -43 5 -58 25 -77 30 -31 92
-34 126 -6 30 24 19 39 -13 17 -43 -31 -101 -10 -110 39 l-5 25 80 0 80 0 -6
37 c-4 20 -14 45 -24 55 -22 21 -70 31 -99 18z m84 -38 c6 -9 12 -24 12 -34 0
-15 -9 -18 -60 -18 -51 0 -60 3 -60 18 0 54 73 77 108 34z"/>
<path d="M1465 10021 c-49 -20 -72 -81 -54 -145 27 -99 165 -86 184 17 17 90
-54 159 -130 128z m89 -43 c25 -35 20 -94 -9 -123 -31 -32 -59 -32 -92 1 -22
22 -25 32 -20 72 6 53 25 72 73 72 23 0 38 -7 48 -22z"/>
<path d="M2615 10021 c-67 -28 -81 -155 -22 -196 30 -21 90 -19 118 4 30 24
19 39 -13 17 -32 -23 -65 -20 -93 9 -45 44 -34 55 50 55 l75 0 0 38 c0 25 -7
45 -18 55 -23 21 -70 29 -97 18z m83 -39 c24 -32 10 -47 -47 -50 -61 -4 -73 3
-60 36 16 42 78 50 107 14z"/>
<path d="M2070 9915 c0 -63 4 -105 10 -105 6 0 10 29 10 68 0 85 15 116 58
120 17 2 32 7 32 13 0 15 -52 10 -72 -8 -17 -15 -18 -15 -18 0 0 10 -4 17 -10
17 -6 0 -10 -42 -10 -105z"/>
<path d="M2230 9915 c0 -87 3 -105 15 -105 12 0 15 18 15 105 0 87 -3 105 -15
105 -12 0 -15 -18 -15 -105z"/>
<path d="M2322 10008 c59 -167 73 -198 93 -198 16 0 26 18 54 93 18 50 36 98
38 105 3 6 -1 12 -9 12 -8 0 -27 -36 -47 -90 -18 -49 -34 -90 -36 -90 -1 0
-18 40 -36 90 -20 52 -40 90 -48 90 -7 0 -11 -6 -9 -12z"/>
</g>
</svg>
